#tb 0: 1/44100
#media_type 0: audio
#codec_id 0: pcm_s16le
#sample_rate 0: 44100
#channel_layout_name 0: stereo
0,          0,          0,     4096,    16384, 0xef0cdbad
0,       4096,       4096,     4096,    16384, 0xdfebef2b
0,       8192,       8192,     4096,    16384, 0x7b17da31
0,      12288,      12288,     4096,    16384, 0x918ce52d
0,      16384,      16384,     4096,    16384, 0x4d83ef79
0,      20480,      20480,     4096,    16384, 0x3b30f2b1
0,      24576,      24576,     4096,    16384, 0xdb85e98b
0,      28672,      28672,     4096,    16384, 0xbe83e895
0,      32768,      32768,     4096,    16384, 0xe955de19
0,      36864,      36864,     4096,    16384, 0xdfebef2b
0,      40960,      40960,     4096,    16384, 0x8e0ce5e3
0,      45056,      45056,     4096,    16384, 0xf837bde7
0,      49152,      49152,     4096,    16384, 0xff280748
0,      53248,      53248,     4096,    16384, 0x6ef8f7b3
0,      57344,      57344,     4096,    16384, 0x1f80a389
0,      61440,      61440,     4096,    16384, 0xc8579a5f
0,      65536,      65536,     4096,    16384, 0x2a33e7e1
0,      69632,      69632,     4096,    16384, 0xd8142596
0,      73728,      73728,     4096,    16384, 0xf3b203f4
0,      77824,      77824,     4096,    16384, 0x2b90d5b5
0,      81920,      81920,     4096,    16384, 0xadced1ff
0,      86016,      86016,     4096,    16384, 0x47690b28
0,      90112,      90112,     4096,    16384, 0x228d831b
0,      94208,      94208,     4096,    16384, 0x9446c597
0,      98304,      98304,     4096,    16384, 0x887b1c46
0,     102400,     102400,     4096,    16384, 0x09699a91
0,     106496,     106496,     4096,    16384, 0x1dbac44b
0,     110592,     110592,     4096,    16384, 0x99581904
0,     114688,     114688,     4096,    16384, 0x3b8d2c84
0,     118784,     118784,     4096,    16384, 0x07330e2a
0,     122880,     122880,     4096,    16384, 0x81116f5a
0,     126976,     126976,     4096,    16384, 0x174f714e
0,     131072,     131072,     4096,    16384, 0x6ae6aee3
0,     135168,     135168,     4096,    16384, 0xea6de7ec
0,     139264,     139264,     4096,    16384, 0x34b70d71
0,     143360,     143360,     4096,    16384, 0xdeead9ec
0,     147456,     147456,     4096,    16384, 0x00c607c7
0,     151552,     151552,     4096,    16384, 0x6c5fdc46
0,     155648,     155648,     4096,    16384, 0x5de1ba74
0,     159744,     159744,     4096,    16384, 0x2e42bd2e
0,     163840,     163840,     4096,    16384, 0xde27e0dd
0,     167936,     167936,     4096,    16384, 0x8ea9d5d7
0,     172032,     172032,     4096,    16384, 0x4611e079
0,     176128,     176128,     4096,    16384, 0x24b7f536
0,     180224,     180224,     4096,    16384, 0x30aca58f
0,     184320,     184320,     4096,    16384, 0x0e1e9e56
0,     188416,     188416,     4096,    16384, 0x02ccf7a0
0,     192512,     192512,     4096,    16384, 0xefa1ee37
0,     196608,     196608,     4096,    16384, 0xa5cc24f3
0,     200704,     200704,     4096,    16384, 0x82329bac
0,     204800,     204800,     4096,    16384, 0xf100c4b1
0,     208896,     208896,     4096,    16384, 0x410d04d2
0,     212992,     212992,     4096,    16384, 0x30aca58f
0,     217088,     217088,     4096,    16384, 0x0e1e9e56
0,     221184,     221184,     4096,    16384, 0x02ccf7a0
0,     225280,     225280,     4096,    16384, 0xefa1ee37
0,     229376,     229376,     4096,    16384, 0xa5cc24f3
0,     233472,     233472,     4096,    16384, 0x82329bac
0,     237568,     237568,     4096,    16384, 0xf100c4b1
0,     241664,     241664,     4096,    16384, 0x410d04d2
0,     245760,     245760,     4096,    16384, 0x30aca58f
0,     249856,     249856,     4096,    16384, 0x0e1e9e56
0,     253952,     253952,     4096,    16384, 0x02ccf7a0
0,     258048,     258048,     4096,    16384, 0xefa1ee37
0,     262144,     262144,     2456,     9824, 0xa8bd5abd
